<svg xmlns="http://www.w3.org/2000/svg" xmlns:xlink="http://www.w3.org/1999/xlink" width="234" height="182"><defs><linearGradient id="b" gradientUnits="userSpaceOnUse" x1="-18.3" y1="-11.39" x2="221.49" y2="172.85"><stop offset="0%" stop-color="#41d1ff"/><stop offset="100%" stop-color="#bd34fe"/></linearGradient><path d="M204.65 66.05V18.38c0-6.07-4.92-11-11-11h-176c-6.07 0-11 4.93-11 11v117.34c0 6.07 4.93 11 11 11h61.31l-5.5 22H61.65c-2.02 0-3.66 1.64-3.66 3.66 0 2.03 1.64 3.67 3.66 3.67h154c6.08 0 11-4.92 11-11v-88c0-6.08-4.92-11-11-11h-11zM13.99 18.38a3.67 3.67 0 013.66-3.67h176c2.03 0 3.67 1.65 3.67 3.67v26.33c-1.18-.41-2.42-.63-3.67-.66h-80.66c-6.08 0-11 4.92-11 11v84.33H17.65c-2.02 0-3.66-1.64-3.66-3.66V18.38zm72.52 128.34h15.48v18.33c.02 1.25.25 2.49.66 3.67H81.01l5.5-22zm26.48 22c-2.03 0-3.67-1.65-3.67-3.67v-110c0-2.03 1.64-3.67 3.67-3.67h80.66c2.03 0 3.67 1.64 3.67 3.67v11h-18.33c-6.08 0-11 4.92-11 11v88c.02 1.25.25 2.49.66 3.67h-55.66zm106.33-3.67c0 2.02-1.64 3.67-3.67 3.67h-36.66c-2.03 0-3.67-1.65-3.67-3.67v-88c0-2.03 1.64-3.67 3.67-3.67h36.66c2.03 0 3.67 1.64 3.67 3.67v88z" id="a"/></defs><use xlink:href="#a" fill="url(#b)"/><use xlink:href="#a" fill-opacity="0" stroke="#000" stroke-opacity="0"/></svg>